<?xml version="1.0" encoding="utf-8"?>
<!-- Generator: Adobe Illustrator 19.1.1, SVG Export Plug-In . SVG Version: 6.00 Build 0)  -->
<svg version="1.1" id="Layer_1" xmlns="http://www.w3.org/2000/svg" xmlns:xlink="http://www.w3.org/1999/xlink" x="0px" y="0px"
	 viewBox="0 0 841.9 222.8" style="enable-background:new 0 0 841.9 222.8;" xml:space="preserve">
<style type="text/css">
	.st0{fill:url(#SVGID_1_);}
	.st1{fill:url(#SVGID_2_);}
	.st2{fill:url(#SVGID_3_);}
</style>
<g>
	<g>
		<linearGradient id="SVGID_1_" gradientUnits="userSpaceOnUse" x1="101.9068" y1="142.817" x2="69.899" y2="187.9802">
			<stop  offset="0" style="stop-color:#FFD400"/>
			<stop  offset="1" style="stop-color:#FF6700"/>
		</linearGradient>
		<path class="st0" d="M50.1,173.8L70,185.4c4.3,2.5,10,3.9,15.9,3.9c2.8,0,5.7-0.3,8.4-1c2.8-0.7,5.3-1.6,7.5-2.9l19.9-11.6
			c4.4-2.6,6.5-4.7,7-7.2c0.4-1.8-0.2-3.7-1.6-5.6c-1.3-1.8-3.8-2.2-5.7-0.9c-4,2.7-14.6,9.6-26.1,15c-6,2.8-12.9,2.8-18.9,0
			c-11.4-5.3-22-12.2-26-14.9c-1.9-1.3-4.3-0.9-5.7,0.9c-1.5,2-2,3.8-1.6,5.6C43.6,169.1,45.7,171.2,50.1,173.8z"/>
		<linearGradient id="SVGID_2_" gradientUnits="userSpaceOnUse" x1="102.4706" y1="164.8496" x2="70.4677" y2="210.0056">
			<stop  offset="0" style="stop-color:#FFD400"/>
			<stop  offset="1" style="stop-color:#FF6700"/>
		</linearGradient>
		<path class="st1" d="M122,182L122,182c-4,3-14.6,9.6-26.1,15c-6,2.8-12.9,2.8-18.9,0c-11.4-5.3-22-12.2-26-14.9
			c-1.9-1.3-4.3-0.8-5.7,0.9c-1.5,2-2,3.8-1.6,5.6c0.5,2.5,2.6,4.6,7,7.2l19.9,11.6c4.3,2.5,10,3.9,15.9,3.9c2.8,0,5.7-0.3,8.4-1
			c2.8-0.7,5.3-1.6,7.5-2.9l19.9-11.6c4.4-2.6,6.5-4.7,7-7.2c0.4-1.8-0.2-3.7-1.6-5.6C126.4,181.2,123.9,181,122,182z"/>
		<linearGradient id="SVGID_3_" gradientUnits="userSpaceOnUse" x1="129.6888" y1="28.2521" x2="39.5912" y2="155.3797">
			<stop  offset="0" style="stop-color:#FFD400"/>
			<stop  offset="1" style="stop-color:#FF6700"/>
		</linearGradient>
		<path class="st2" d="M95.5,14.6C74.3,11.8,53,18.2,37,32.2c-16,14-25.2,34.2-25.2,55.5c0,3.9,0.3,8,1,12.1l0.1,0.4
			c1.2,6.9,3.3,13.5,6.3,19.8l3.4,6.3c1.2,2,2.6,3.9,4,5.9l0.1,0.1c4.8,7.4,8.5,14.4,11,20.6l0.7,1.8l1.8-0.7c2.4-1,4.3-2.9,5.3-5.4
			c0.9-2.4,0.8-5.2-0.3-7.5c-2.4-4.8-5.3-10-8.8-15.3l-0.3-0.4c-1.3-1.8-2.6-3.5-3.6-5.3l-0.1-0.2c-4-6.6-6.7-13.9-8-21.7l-0.1-0.3
			c-0.6-3.5-0.9-6.9-0.9-10.1c0-17.9,7.8-35,21.4-46.8C58.4,29,76.4,23.7,94.4,26.2c30.7,4.3,53.5,30.9,53.2,62.1
			c0,3-0.3,6.1-0.9,9.5l0,0.3c-1.3,7.7-4,15.1-8.1,21.8l-0.3,0.4c-1.3,2.1-2.4,3.8-3.7,5.3l-0.2,0.3c-2.3,3.6-5.7,9.1-8.8,15.3
			c-1.1,2.3-1.3,5.1-0.3,7.5c0.9,2.4,2.9,4.4,5.3,5.4l1.8,0.7l0.7-1.8c3.2-7.9,7.7-15.6,10.9-20.5c1.4-1.8,2.7-3.7,4.2-6.1l2.9-5
			l0.1-0.3c3.4-6.7,5.8-13.8,7-21.3l0.1-0.3c0.7-4,1-7.8,1-11.5C159.4,50.4,132.6,19.5,95.5,14.6z"/>
	</g>
	<g>
		<path d="M208.3,24.3c0,2.3-0.8,4.2-2.5,5.8c-1.6,1.6-3.6,2.4-5.9,2.4c-2.4,0-4.4-0.8-6-2.4c-1.6-1.6-2.5-3.6-2.5-5.8
			c0-2.3,0.8-4.3,2.5-5.9c1.6-1.7,3.7-2.5,6-2.5c2.3,0,4.3,0.8,5.9,2.5C207.5,20.1,208.3,22,208.3,24.3z M207.3,143.2h-14.6V50.5
			h14.6V143.2z"/>
		<path d="M295.1,143.2h-14.6V76.6c0-12-6.1-18.1-18.3-18.1c-6.3,0-11.8,1.1-16.5,3.3v81.4h-14.6V55.3c8.6-4.4,19.3-6.5,32.2-6.5
			c11.2,0,19.6,2.9,25,8.8c4.5,4.8,6.7,11.1,6.7,18.8V143.2z"/>
		<path d="M382.2,50.5l-28.6,92.7h-12.9l-29.3-92.7h15.4l18.5,66.4c1.1,3.9,1.9,7.7,2.3,11.4h0.3c0.1-1.7,0.8-5.5,2.1-11.4
			l18.8-66.4H382.2z"/>
		<path d="M463.7,94.2l-55.4,8.4c1.6,20.9,10.6,31.3,26.8,31.3c8.6,0,15.9-1.8,21.7-5.3l3.8,10c-6.6,4.2-15.5,6.4-26.7,6.4
			c-12,0-21.4-4-28.3-11.9c-7.3-8.4-11-20.5-11-36.5c0-15.4,3.3-27.3,10-35.8c6.3-8,14.8-12,25.5-12C452.8,48.8,464,63.9,463.7,94.2
			z M449.9,87.8c0-19.5-6.7-29.2-20.2-29.2c-6.7,0-12,2.9-15.8,8.6c-4.1,6.2-6.1,15.3-6,27.4L449.9,87.8z"/>
		<path d="M547.4,143.2h-14.6V76.6c0-12-6.1-18.1-18.3-18.1c-6.3,0-11.8,1.1-16.5,3.3v81.4h-14.6V55.3c8.6-4.4,19.3-6.5,32.2-6.5
			c11.2,0,19.6,2.9,25,8.8c4.5,4.8,6.7,11.1,6.7,18.8V143.2z"/>
		<path d="M605.2,142.8c-2.9,0.9-5.6,1.4-7.8,1.4c-7.4,0-13.1-2.5-17-7.4c-3.3-4.2-4.9-9.6-4.9-16V59.9h-10.1v-9.5h10.1V29.1
			l14.6-4.6v26h15.2v9.5H590v60.4c0,8.9,3.7,13.4,11,13.4c0.9,0,2.3-0.2,4.2-0.7V142.8z"/>
		<path d="M688.5,96.9c0,14.3-2.7,25.7-8.2,34.2c-6,9.2-14.7,13.8-26.2,13.8c-11.4,0-20.2-4.6-26.3-13.8c-5.5-8.5-8.2-19.9-8.2-34.2
			c0-14.6,2.8-26,8.3-34.4c6-9.2,14.7-13.8,26-13.8c11.6,0,20.3,4.6,26.3,13.8C685.7,70.8,688.5,82.2,688.5,96.9z M673.9,96.9
			c0-25.7-6.6-38.5-19.8-38.5c-13.3,0-19.9,12.8-19.9,38.5c0,25,6.6,37.5,19.9,37.5C667.3,134.4,673.9,121.9,673.9,96.9z"/>
		<path d="M746.2,48.9l-3.4,11.5c-2.8-0.9-5.7-1.4-8.6-1.4c-4.7,0-8.4,1-11.4,3.1v81h-14.6V55.5C717.2,50.6,729.8,48.5,746.2,48.9z"
			/>
		<path d="M826.5,94.2l-55.4,8.4c1.6,20.9,10.6,31.3,26.8,31.3c8.6,0,15.9-1.8,21.7-5.3l3.8,10c-6.6,4.2-15.5,6.4-26.7,6.4
			c-12,0-21.4-4-28.3-11.9c-7.3-8.4-11-20.5-11-36.5c0-15.4,3.3-27.3,10-35.8c6.3-8,14.8-12,25.5-12
			C815.6,48.8,826.8,63.9,826.5,94.2z M812.7,87.8c0-19.5-6.7-29.2-20.2-29.2c-6.7,0-12,2.9-15.8,8.6c-4.1,6.2-6.1,15.3-6,27.4
			L812.7,87.8z"/>
	</g>
	<g>
		<path d="M407.7,191.3c0,0.8-0.3,1.5-0.8,2c-0.6,0.6-1.2,0.8-2,0.8s-1.5-0.3-2.1-0.8c-0.6-0.6-0.9-1.2-0.9-2s0.3-1.5,0.9-2.1
			c0.6-0.6,1.3-0.9,2.1-0.9s1.5,0.3,2,0.9C407.4,189.8,407.7,190.5,407.7,191.3z M407.7,206.6c0,0.8-0.3,1.5-0.8,2.1
			c-0.6,0.6-1.2,0.9-2,0.9s-1.5-0.3-2.1-0.9c-0.6-0.6-0.9-1.3-0.9-2.1c0-0.8,0.3-1.5,0.9-2c0.6-0.6,1.3-0.8,2.1-0.8s1.5,0.3,2,0.8
			C407.4,205.2,407.7,205.8,407.7,206.6z"/>
		<path d="M448.5,195.9c0,4.2-0.8,7.5-2.5,10c-1.8,2.7-4.5,4-8,4s-6.2-1.3-8.1-4c-1.7-2.5-2.5-5.8-2.5-10c0-4.2,0.9-7.6,2.6-10
			c1.8-2.7,4.5-4,8-4c3.5,0,6.2,1.3,8.1,4C447.6,188.3,448.5,191.6,448.5,195.9z M444,195.9c0-7.5-2-11.2-6.1-11.2
			c-4.1,0-6.1,3.7-6.1,11.2c0,7.3,2,10.9,6.1,10.9C442,206.8,444,203.2,444,195.9z"/>
		<path d="M465.1,185.1h-4.7v24.2H456v-24.2h-3.1v-2.8h3.1v-3.8c0-2.7,0.8-4.8,2.4-6.4c1.6-1.6,3.8-2.3,6.7-2.1v2.8
			c-3.1,0.2-4.7,1.9-4.7,5.2v4.3h4.7V185.1z"/>
		<path d="M475.1,174.8c0,0.7-0.3,1.2-0.8,1.7c-0.5,0.5-1.1,0.7-1.8,0.7c-0.7,0-1.4-0.2-1.9-0.7c-0.5-0.5-0.8-1-0.8-1.7
			c0-0.7,0.3-1.2,0.8-1.7c0.5-0.5,1.1-0.7,1.9-0.7c0.7,0,1.3,0.2,1.8,0.7C474.8,173.5,475.1,174.1,475.1,174.8z M474.8,209.3h-4.5
			v-27h4.5V209.3z"/>
		<path d="M497.3,208c-1.3,1.2-3.4,1.8-6.1,1.8c-3,0-5.5-1.3-7.4-3.8c-1.9-2.5-2.9-5.9-2.9-10.2c0-4.3,1-7.8,3-10.3
			c1.9-2.4,4.3-3.7,7.4-3.7c2.6,0,4.6,0.6,6,1.8l-1.1,2.6c-1.2-0.9-2.5-1.3-4-1.3c-4.5,0-6.8,3.6-6.8,10.8c0,3.3,0.6,5.9,1.7,7.9
			c1.2,2,2.8,3.1,5,3.1c1.5,0,2.9-0.4,4.1-1.3L497.3,208z"/>
		<path d="M507.7,174.8c0,0.7-0.3,1.2-0.8,1.7c-0.5,0.5-1.1,0.7-1.8,0.7c-0.7,0-1.4-0.2-1.9-0.7c-0.5-0.5-0.8-1-0.8-1.7
			c0-0.7,0.3-1.2,0.8-1.7c0.5-0.5,1.1-0.7,1.9-0.7c0.7,0,1.3,0.2,1.8,0.7C507.5,173.5,507.7,174.1,507.7,174.8z M507.4,209.3H503
			v-27h4.5V209.3z"/>
		<path d="M534.3,209.3h-4.5V190c0-3.5-1.9-5.3-5.6-5.3c-1.9,0-3.6,0.3-5.1,1v23.7h-4.5v-25.6c2.6-1.3,5.9-1.9,9.9-1.9
			c3.4,0,6,0.9,7.7,2.6c1.4,1.4,2.1,3.2,2.1,5.5V209.3z"/>
		<path d="M559.3,207.9c-2.3,1.3-5.3,1.9-9,1.9c-6.8,0-10.3-2.7-10.3-8c0-3.3,1.5-5.8,4.4-7.4c2.3-1.3,5.9-2.2,10.7-2.7v-1.7
			c0-3.6-2-5.4-6-5.4c-2.1,0-4.2,0.6-6.5,1.7l-1.1-2.6c2.4-1.3,5.2-2,8.3-2c6.3,0,9.4,2.9,9.4,8.8V207.9z M555.1,206.4V194
			c-3.8,0.5-6.4,1.2-8,2.2c-1.9,1.2-2.9,3.1-2.9,5.6c0,3.7,2.1,5.5,6.4,5.5C552.6,207.3,554,207,555.1,206.4z"/>
		<path d="M599.5,207.9c-2.1,1.3-4.9,1.9-8.5,1.9c-3.8,0-6.7-1.2-8.8-3.7c-2.1-2.4-3.1-5.7-3.1-9.9c0-4.4,1.1-7.9,3.3-10.5
			c2.1-2.5,4.9-3.7,8.5-3.7c1.4,0,2.8,0.2,4.3,0.7v-12.7h4.4V207.9z M595.1,206.2v-21.1c-1.2-0.3-2.4-0.5-3.4-0.5
			c-2.9,0-5.1,1.2-6.5,3.5c-1.2,1.9-1.8,4.5-1.8,7.8c0,7.4,2.6,11,7.7,11C593.1,206.9,594.4,206.7,595.1,206.2z"/>
		<path d="M626.6,195.1l-17,2.5c0.5,6.1,3.2,9.1,8.2,9.1c2.6,0,4.9-0.5,6.7-1.6l1.2,2.9c-2,1.2-4.8,1.9-8.2,1.9
			c-3.7,0-6.6-1.2-8.7-3.5c-2.2-2.4-3.4-6-3.4-10.6c0-4.5,1-7.9,3.1-10.4c1.9-2.3,4.5-3.5,7.8-3.5
			C623.3,181.9,626.7,186.3,626.6,195.1z M622.4,193.2c0-5.7-2.1-8.5-6.2-8.5c-2.1,0-3.7,0.8-4.8,2.5c-1.3,1.8-1.9,4.5-1.8,8
			L622.4,193.2z"/>
		<path d="M660.8,201.8c0,2.1-0.8,4-2.5,5.5c-1.7,1.6-3.9,2.4-6.6,2.4c-3,0-5.3-0.6-6.9-1.9l1.2-2.9c1.3,1.1,3,1.6,5.3,1.6
			c1.5,0,2.7-0.4,3.6-1.3c0.9-0.9,1.4-2,1.4-3.3c0-1.3-0.4-2.4-1.1-3.2c-0.7-0.8-1.8-1.4-3.4-2c-4.2-1.6-6.3-4.1-6.3-7.6
			c0-2.1,0.7-3.8,2.2-5.3c1.5-1.4,3.4-2.2,5.8-2.2c2.4,0,4.5,0.6,6.3,1.9l-1.2,2.7c-1.3-1-2.8-1.5-4.5-1.5c-1.4,0-2.5,0.4-3.3,1.2
			c-0.8,0.8-1.2,1.8-1.2,3c0,2.1,1.5,3.7,4.5,4.8C658.6,195.6,660.8,198.3,660.8,201.8z"/>
		<path d="M686.7,195.9c0,4.2-0.8,7.5-2.5,10c-1.8,2.7-4.5,4-8,4s-6.2-1.3-8.1-4c-1.7-2.5-2.5-5.8-2.5-10c0-4.2,0.9-7.6,2.6-10
			c1.8-2.7,4.5-4,8-4c3.5,0,6.2,1.3,8.1,4C685.9,188.3,686.7,191.6,686.7,195.9z M682.3,195.9c0-7.5-2-11.2-6.1-11.2
			c-4.1,0-6.1,3.7-6.1,11.2c0,7.3,2,10.9,6.1,10.9C680.2,206.8,682.3,203.2,682.3,195.9z"/>
		<path d="M703.4,185.1h-4.7v24.2h-4.5v-24.2h-3.1v-2.8h3.1v-3.8c0-2.7,0.8-4.8,2.4-6.4c1.6-1.6,3.8-2.3,6.7-2.1v2.8
			c-3.1,0.2-4.7,1.9-4.7,5.2v4.3h4.7V185.1z"/>
		<path d="M718.9,209.2c-0.9,0.3-1.7,0.4-2.4,0.4c-2.3,0-4-0.7-5.2-2.2c-1-1.2-1.5-2.8-1.5-4.7v-17.7h-3.1v-2.8h3.1v-6.2l4.5-1.4
			v7.6h4.7v2.8h-4.7v17.6c0,2.6,1.1,3.9,3.4,3.9c0.3,0,0.7-0.1,1.3-0.2V209.2z"/>
		<path d="M757.8,182.4l-7.7,27h-3.8l-5.5-19.3c-0.3-1-0.5-2.1-0.6-3.2h0c-0.1,0.5-0.3,1.6-0.7,3.2l-5.6,19.3h-3.8l-7.7-27h4.5
			l4.7,19.4c0.3,1.2,0.5,2.3,0.6,3.2h0.1c0.1-0.8,0.3-1.9,0.7-3.2l5.5-19.4h3.8l5.3,19.4c0.3,1,0.5,2,0.6,3.2h0.1
			c0-0.6,0.2-1.7,0.6-3.3l4.9-19.3H757.8z"/>
		<path d="M780.8,207.9c-2.3,1.3-5.3,1.9-9,1.9c-6.8,0-10.3-2.7-10.3-8c0-3.3,1.5-5.8,4.4-7.4c2.3-1.3,5.9-2.2,10.7-2.7v-1.7
			c0-3.6-2-5.4-6-5.4c-2.1,0-4.2,0.6-6.5,1.7l-1.1-2.6c2.4-1.3,5.2-2,8.3-2c6.3,0,9.4,2.9,9.4,8.8V207.9z M776.7,206.4V194
			c-3.8,0.5-6.4,1.2-8,2.2c-1.9,1.2-2.9,3.1-2.9,5.6c0,3.7,2.1,5.5,6.4,5.5C774.1,207.3,775.6,207,776.7,206.4z"/>
		<path d="M799.5,181.9l-1,3.4c-0.9-0.3-1.7-0.4-2.6-0.4c-1.4,0-2.6,0.3-3.5,0.9v23.6h-4.5v-25.5
			C790.6,182.4,794.5,181.8,799.5,181.9z"/>
		<path d="M824.1,195.1l-17,2.5c0.5,6.1,3.2,9.1,8.2,9.1c2.6,0,4.9-0.5,6.7-1.6l1.2,2.9c-2,1.2-4.8,1.9-8.2,1.9
			c-3.7,0-6.6-1.2-8.7-3.5c-2.2-2.4-3.4-6-3.4-10.6c0-4.5,1-7.9,3.1-10.4c1.9-2.3,4.5-3.5,7.8-3.5
			C820.8,181.9,824.2,186.3,824.1,195.1z M819.9,193.2c0-5.7-2.1-8.5-6.2-8.5c-2.1,0-3.7,0.8-4.8,2.5c-1.3,1.8-1.9,4.5-1.8,8
			L819.9,193.2z"/>
	</g>
</g>
<g>
</g>
<g>
</g>
<g>
</g>
<g>
</g>
<g>
</g>
<g>
</g>
</svg>
