<?xml version="1.0" encoding="utf-8"?>
<!-- Generator: Adobe Illustrator 19.1.1, SVG Export Plug-In . SVG Version: 6.00 Build 0)  -->
<svg version="1.1" id="Layer_1" xmlns="http://www.w3.org/2000/svg" xmlns:xlink="http://www.w3.org/1999/xlink" x="0px" y="0px"
	 viewBox="0 0 1267.5 357" style="enable-background:new 0 0 1267.5 357;" xml:space="preserve">
<style type="text/css">
	.st0{fill-rule:evenodd;clip-rule:evenodd;fill:url(#SVGID_1_);}
	.st1{fill-rule:evenodd;clip-rule:evenodd;fill:url(#SVGID_2_);}
	.st2{fill:#282828;}
</style>
<g>
	<linearGradient id="SVGID_1_" gradientUnits="userSpaceOnUse" x1="80.6378" y1="56.2377" x2="185.0603" y2="237.1028">
		<stop  offset="0" style="stop-color:#1F9FF1"/>
		<stop  offset="1" style="stop-color:#82CEF2"/>
	</linearGradient>
	<path class="st0" d="M48.7,132.3c-3.7-6.1-1.7-13.9,4.4-17.6l104.3-62.5l11.5-46.9L14.3,98.9c-11.1,6.7-14.7,21.2-7.9,32.3
		l93.7,154.9l12.2-49.9L48.7,132.3z"/>
	<linearGradient id="SVGID_2_" gradientUnits="userSpaceOnUse" x1="108.434" y1="60.9133" x2="212.8565" y2="241.7784">
		<stop  offset="0" style="stop-color:#1F9FF1"/>
		<stop  offset="1" style="stop-color:#82CEF2"/>
	</linearGradient>
	<path class="st1" d="M287.1,166.1l-94-154l-10.9,44.4l64.5,105.4c3.7,6,1.7,13.9-4.4,17.6l-105.7,63.4l-12.3,50.1l154.8-94.5
		C290.3,191.6,293.9,177.2,287.1,166.1z"/>
</g>
<g>
	<path class="st2" d="M425.3,231.6l9.9-40.1c-5.7,12.1-11.1,21.2-16.3,27.4c-7.3,8.5-15.4,12.8-24.2,12.8h-33
		c-12.6,0-21.6-4.1-27.2-12.4c-5.6-8.3-8.3-20.4-8.3-36.2c0-39.3,9.5-71.3,28.6-95.9c19.1-24.6,45.3-36.9,78.7-36.9h70.3
		c4.7,0,8.2,1.3,10.3,3.9c2.1,2.6,3.2,5.8,3.2,9.6c0,2.4-0.4,4.6-1.1,6.7L474,242.7c-4.7,19.9-14.7,33.5-29.8,40.9
		c-13,6.4-33.3,9.6-60.7,9.6c-28.7,0-48.5-1.7-59.7-5c-8-2.4-12.1-5.9-12.1-10.7c0-0.7,0-1.4,0-2.1c0.5-0.9,0.7-1.5,0.7-1.8
		l7.1-35.9c1.4,5.2,4,9.1,7.6,11.5c3.7,2.5,10.4,3.7,20.1,3.7h53.6c6.2,0,11.4-2,15.6-6C420.7,242.9,423.7,237.8,425.3,231.6z
		 M437.4,182.3l22.4-92c-7.3,0-13.6,0-18.6,0c-5.1,0-9.9,0-14.4,0c-14.2,0-25.9,7.2-35,21.6c-9.1,14.4-13.7,31.9-13.7,52.6
		c0,10.9,3,18.9,8.9,23.9c4.3,3.6,9.8,5.3,16.7,5.3c3.1,0,5.3-0.2,6.7-0.7c5-1.7,8.8-2.8,11.4-3.6
		C429.8,186.5,435,184.2,437.4,182.3z"/>
	<path class="st2" d="M550,70.4c0-5-0.6-9.2-1.8-12.6c-1.2-3.4-3.7-5.7-7.5-6.9h50.4c2.4,0,4.5,1.3,6.4,3.9c1.9,2.6,2.6,5.2,2.1,7.8
		l-36.9,164.8c0,5.9,0.5,10.2,1.4,13c0.9,2.7,3.3,4.1,7.1,4.1H524c-2.6,0-5-1.2-7.1-3.6c-2.1-2.4-3.2-5.6-3.2-9.6L550,70.4z
		 M556,32.7l5-27.4h36.2c5,0,8.2,0.9,9.6,2.8c1.4,1.9,1.9,4.1,1.4,6.7l-5.7,25.2h-35.2c-4.5,0-7.5-0.6-9.1-1.8
		C556.8,37.2,556,35.3,556,32.7z"/>
	<path class="st2" d="M698.4,50.1h77.1l-5,28.4c-0.7,4.3-2.6,7.3-5.7,9.1c-3.1,1.8-6.7,2.7-11,2.7h-44.7c-19.4,0-33,13.9-40.8,41.6
		c-4,14-6,28.4-6,43.3c0,11.8,3,19.9,8.9,24.2c4,2.8,10.5,4.3,19.5,4.3c3.6,0,6.2,0,7.8,0c21.1,0,35.1-1.1,42.1-3.2
		c7-2.1,11.8-6.2,14.4-12.1l-9.6,41.2c-1.9,9.9-7.8,14.9-17.8,14.9h-65c-22.5,0-37.6-6.4-45.5-19.2c-4.5-7.3-6.7-17.9-6.7-31.6
		c0-14,0.8-27.1,2.5-39.4c3.8-27.9,11.1-50.6,22-67.9C650,62.2,671.2,50.1,698.4,50.1z"/>
	<path class="st2" d="M805.7,65c0-3.3-0.5-6.4-1.4-9.2c-0.9-2.8-2.8-5-5.7-6.4h46.9c3.1,0,6,1.2,8.7,3.7c2.7,2.5,4.1,5.3,4.1,8.3
		l-1.4,12.8l9.6-15.3c2.1-3.3,4.7-5.7,7.8-7.3c3.1-1.5,6.3-2.3,9.6-2.3h36.6c9.9,0,17.5,2.7,22.7,8.2c5.2,5.5,7.8,12.8,7.8,22
		c0,3.3-0.6,7.6-1.8,12.8l-32,135c0,8.8,3.1,14.4,9.2,17.1h-52.2c-2.6,0-4.6-1.6-6-4.8c-1.4-3.2-1.7-5.9-0.7-8l29.1-125.8
		c0.2-0.9,0.4-2.4,0.4-4.3c0-4.5-1.9-7.8-5.7-9.8c-3.8-2-9.1-3-16-3c-7.3,0-13,0.8-17,2.3c-4,1.5-6.9,5.6-8.5,12.3l-32,128.2
		c0,5.5,3,9.4,8.9,11.7c0.2,0.5,0.6,0.8,1.1,1.1h-50.4c-3.1,0-5.6-0.5-7.5-1.4c-3.8-1.9-5.3-5.4-4.6-10.7L805.7,65z"/>
	<path class="st2" d="M1101.2,153.1h-98.7c-0.9,5.2-1.8,10.4-2.7,15.6c-0.8,5.2-1.2,9.5-1.2,12.8c0,6.6,1.7,11.3,5,13.9
		c3.3,2.6,9,3.9,17,3.9h34.5c10.7,0,17.5-0.2,20.6-0.7c9.5-1.4,16.9-6.4,22.4-14.9l-11,45.5c-0.9,4-4,7.6-9.2,10.7
		c-5.2,3.1-10.7,4.6-16.3,4.6h-62.9c-15.9,0-27.6-3-35.2-8.9c-9-7.1-13.5-18.9-13.5-35.5c0-4.3,0.1-7.6,0.4-9.9
		c5-57.2,13.9-94.9,26.6-112.9c12.8-18.1,37.6-27.1,74.6-27.1c30.3,0,50,3.1,59,9.4c9,6.3,13.5,18.9,13.5,38.1
		c0,11.6-1.5,24-4.6,37.2c-2.1,6.8-3.4,11.6-3.9,14.3C1114.9,151.8,1110.2,153.1,1101.2,153.1z M1051.4,84.9
		c-12.6,0-21.8,3.3-27.7,9.8c-4.5,4.9-8.9,14.1-13.1,27.5h67.1c1.7-6,2.5-11.3,2.5-15.7c0-7-1.9-12.1-5.7-15.3
		C1069.8,87,1062.1,84.9,1051.4,84.9z"/>
	<path class="st2" d="M1158,90.3h-16.3l6.7-34.1c13.3,0,25.7-3.8,37.3-11.5c11.6-7.7,19.6-17.8,24.2-30.4h16.7l-7.5,35.9h45.5
		l-2.1,30.2c0,3.6-1.5,6.1-4.6,7.6c-3.1,1.5-7,2.3-11.8,2.3h-25.7c-7.6,0-12.1,3.4-13.6,10.3l-21.4,92c0,0.7,0,1.9,0,3.6
		c0,6.9,2.8,10.3,8.5,10.3h32.7c3.1,0,6.4-1.7,9.9-5c3.6-3.3,5.7-6.7,6.4-10.3l-10.3,44c-0.7,2.8-2.5,5.3-5.5,7.3c-3,2-6.3,3-10.1,3
		h-77.8c-3.8,0-7.1-1.5-9.9-4.6c-2.8-3.1-3.8-6.5-2.8-10.3L1158,90.3z"/>
</g>
<g>
	<path class="st2" d="M987,288.1c6.9,0,12.3,1,16,3c5.1,2.7,7.7,7.2,7.7,13.6c0,18-3.7,30.9-11.1,38.8c-5.9,6.3-14.3,9.5-25.2,9.5
		c-7.2,0-12.6-1.5-16.5-4.5c-3.8-3-5.7-7.4-5.7-13.2c0-1,0-1.8,0.1-2.4c1.7-17.9,6.1-30.3,13.3-37.4
		C970.7,290.6,977.8,288.1,987,288.1z M987,299.2c-5.7,0-9.5,1.7-11.6,5c-2.5,4-5.3,13.6-8.3,28.9c-0.1,0.3-0.1,0.7-0.1,1.2
		c0,2.2,1.1,4.1,3.3,5.6c2.2,1.5,4.6,2.3,7.1,2.3c5.3,0,9.6-3.5,12.9-10.6c3.6-7.8,5.4-15.7,5.4-23.5c0-3.3-0.7-5.6-2.1-6.9
		C992.2,299.8,990,299.2,987,299.2z"/>
	<path class="st2" d="M1024.1,293.3c0-1.1-0.2-2.1-0.5-3.1c-0.3-0.9-0.9-1.7-1.9-2.1h15.6c1,0,2,0.4,2.9,1.2
		c0.9,0.8,1.4,1.8,1.4,2.8l-0.5,4.2l3.2-5.1c0.7-1.1,1.6-1.9,2.6-2.4c1-0.5,2.1-0.8,3.2-0.8h12.2c3.3,0,5.8,0.9,7.6,2.7
		c1.7,1.8,2.6,4.2,2.6,7.3c0,1.1-0.2,2.5-0.6,4.2l-10.6,44.8c0,2.9,1,4.8,3.1,5.7h-17.3c-0.9,0-1.5-0.5-2-1.6s-0.6-1.9-0.2-2.7
		l9.7-41.8c0.1-0.3,0.1-0.8,0.1-1.4c0-1.5-0.6-2.6-1.9-3.2c-1.3-0.7-3-1-5.3-1c-2.4,0-4.3,0.3-5.7,0.8c-1.3,0.5-2.3,1.9-2.8,4.1
		l-10.6,42.6c0,1.8,1,3.1,2.9,3.9c0.1,0.2,0.2,0.3,0.4,0.4h-16.8c-1,0-1.8-0.2-2.5-0.5c-1.3-0.6-1.8-1.8-1.5-3.5L1024.1,293.3z"/>
	<path class="st2" d="M1087,280.2c0.3-1.3,0.5-2.5,0.5-3.7c0-2.2-0.9-3.5-2.7-4h15.6c1.3,0,2.4,0.1,3.2,0.2c0.8,0.2,1.2,0.9,1.2,2.2
		c0,0.2,0,0.7,0,1.5l-14.5,68.7c-0.2,0.9-0.3,1.6-0.4,2.2c-0.1,0.6-0.2,1.3-0.2,2.1c0,1.5,0.7,2.6,2.1,3.3h-15.2c-2.7,0-4-1.5-4-4.5
		c0-1.1,0.2-2.2,0.5-3.2L1087,280.2z"/>
	<path class="st2" d="M1117.9,295.1c0-1.7-0.2-3-0.6-4.2c-0.4-1.1-1.2-1.9-2.5-2.3h16.8c0.8,0,1.5,0.4,2.1,1.3
		c0.6,0.9,0.9,1.7,0.7,2.6l-12.3,54.7c0,2,0.2,3.4,0.5,4.3c0.3,0.9,1.1,1.4,2.4,1.4h-15.7c-0.9,0-1.7-0.4-2.4-1.2
		c-0.7-0.8-1.1-1.8-1.1-3.2L1117.9,295.1z M1119.9,282.6l1.7-9.1h12c1.7,0,2.7,0.3,3.2,0.9c0.5,0.6,0.6,1.4,0.5,2.2l-1.9,8.4h-11.7
		c-1.5,0-2.5-0.2-3-0.6C1120.2,284.1,1119.9,283.4,1119.9,282.6z"/>
	<path class="st2" d="M1150.6,293.3c0-1.1-0.2-2.1-0.5-3.1c-0.3-0.9-0.9-1.7-1.9-2.1h15.6c1,0,2,0.4,2.9,1.2
		c0.9,0.8,1.4,1.8,1.4,2.8l-0.5,4.2l3.2-5.1c0.7-1.1,1.6-1.9,2.6-2.4c1-0.5,2.1-0.8,3.2-0.8h12.2c3.3,0,5.8,0.9,7.6,2.7
		c1.7,1.8,2.6,4.2,2.6,7.3c0,1.1-0.2,2.5-0.6,4.2l-10.6,44.8c0,2.9,1,4.8,3.1,5.7h-17.3c-0.9,0-1.5-0.5-2-1.6s-0.6-1.9-0.2-2.7
		l9.7-41.8c0.1-0.3,0.1-0.8,0.1-1.4c0-1.5-0.6-2.6-1.9-3.2c-1.3-0.7-3-1-5.3-1c-2.4,0-4.3,0.3-5.7,0.8c-1.3,0.5-2.3,1.9-2.8,4.1
		l-10.6,42.6c0,1.8,1,3.1,2.9,3.9c0.1,0.2,0.2,0.3,0.4,0.4h-16.8c-1,0-1.8-0.2-2.5-0.5c-1.3-0.6-1.8-1.8-1.5-3.5L1150.6,293.3z"/>
	<path class="st2" d="M1249.4,322.6h-32.8c-0.3,1.7-0.6,3.5-0.9,5.2c-0.3,1.7-0.4,3.1-0.4,4.2c0,2.2,0.5,3.7,1.7,4.6
		c1.1,0.9,3,1.3,5.7,1.3h11.4c3.5,0,5.8-0.1,6.8-0.2c3.1-0.5,5.6-2.1,7.4-5l-3.7,15.1c-0.3,1.3-1.3,2.5-3.1,3.5
		c-1.7,1-3.5,1.5-5.4,1.5h-20.9c-5.3,0-9.2-1-11.7-2.9c-3-2.4-4.5-6.3-4.5-11.8c0-1.4,0-2.5,0.1-3.3c1.7-19,4.6-31.5,8.8-37.5
		c4.2-6,12.5-9,24.8-9c10.1,0,16.6,1,19.6,3.1c3,2.1,4.5,6.3,4.5,12.6c0,3.8-0.5,8-1.5,12.3c-0.7,2.3-1.1,3.9-1.3,4.8
		C1253.9,322.1,1252.4,322.6,1249.4,322.6z M1232.9,299.9c-4.2,0-7.2,1.1-9.2,3.2c-1.5,1.6-2.9,4.7-4.4,9.1h22.3
		c0.5-2,0.8-3.7,0.8-5.2c0-2.3-0.6-4-1.9-5.1C1238.9,300.6,1236.4,299.9,1232.9,299.9z"/>
</g>
<g>
</g>
<g>
</g>
<g>
</g>
<g>
</g>
<g>
</g>
<g>
</g>
<g>
</g>
<g>
</g>
<g>
</g>
<g>
</g>
<g>
</g>
<g>
</g>
<g>
</g>
<g>
</g>
<g>
</g>
</svg>
